# File created by Blade
# Date/Time:  Thu Jan 22 19:24:19 2015
# Frame Rate: 120.000 fps
#------------------------------------------------------
:FULLY-SPECIFIED
:DEGREES
2230
root 6.163808 31.927482 -3.686068 9.597646 6.049244 8.517011
RightUpLeg -23.267618 2.768811 2.636140
RightLeg 38.405608 -0.000000 -0.000000
RightFoot -27.204487 -14.171029 -2.972674
RightToeBase 1.985812 -0.000000 -0.000000
LeftUpLeg -0.571804 -10.562681 -22.117984
LeftLeg -2.301071 -0.000000 0.000000
LeftFoot -4.681587 0.037320 -1.946508
LeftToeBase 4.145115 -0.000000 -0.000000
Spine -6.652325 -4.105097 35.981303
RightShoulder -11.801301 -15.503585 0.061199
RightArm 21.185467 0.022905 63.246606
RightForeArm -7.724285 -0.000000 15.466167
RightHand 14.691474 -0.000000 -1.361062
RightHandThumb1 -24.326973 -0.000000 -32.862282
LeftShoulder -24.067012 -15.962261 62.264586
LeftArm 62.967704 -52.415697 -31.175903
LeftForeArm 3.097173 0.000000 20.241522
LeftHand -0.735277 -0.000000 5.050191
LeftHandThumb1 -26.253704 0.000000 33.147579
Head -10.291803 5.242494 46.747401
2231
root 6.158911 31.930266 -3.688970 9.575409 6.087752 8.509807
RightUpLeg -23.236342 2.767994 2.653310
RightLeg 38.381350 -0.000000 -0.000000
RightFoot -27.199735 -14.175604 -2.938730
RightToeBase 1.882863 -0.000000 -0.000000
LeftUpLeg -0.555059 -10.579271 -22.103472
LeftLeg -2.292384 -0.000000 0.000000
LeftFoot -4.667817 0.029940 -1.896206
LeftToeBase 4.124103 -0.000000 -0.000000
Spine -6.639435 -4.114207 35.974799
RightShoulder -11.843699 -15.480449 0.074314
RightArm 21.219002 -0.018986 63.199024
RightForeArm -7.607912 -0.000000 15.406882
RightHand 14.721386 -0.000000 -1.267102
RightHandThumb1 -24.326973 -0.000000 -32.862282
LeftShoulder -24.101709 -16.023491 62.297543
LeftArm 62.890222 -52.354017 -31.140121
LeftForeArm 3.142626 -0.000000 20.221403
LeftHand -0.830362 -0.000000 5.060109
LeftHandThumb1 -26.253704 0.000000 33.147579
Head -10.351430 5.067100 46.776268
2232
root 6.153749 31.932564 -3.691973 9.552064 6.127407 8.500553
RightUpLeg -23.207207 2.765842 2.673477
RightLeg 38.364524 -0.000000 -0.000000
RightFoot -27.182311 -14.181191 -2.939747
RightToeBase 1.796686 -0.000000 -0.000000
LeftUpLeg -0.552863 -10.505527 -22.089478
LeftLeg -2.249982 -0.000000 0.000000
LeftFoot -4.678033 -0.062001 -1.880156
LeftToeBase 4.194978 -0.000000 -0.000000
Spine -6.660459 -4.131056 35.980964
RightShoulder -11.797427 -15.441959 0.026502
RightArm 21.140016 0.093986 63.265013
RightForeArm -7.711475 -0.000000 15.389548
RightHand 14.705130 0.000000 -1.320880
RightHandThumb1 -24.326973 -0.000000 -32.862282
LeftShoulder -24.063528 -16.036611 62.266989
LeftArm 62.826362 -52.346398 -31.090454
LeftForeArm 3.260388 0.000000 20.209974
LeftHand -0.919719 -0.000000 5.114780
LeftHandThumb1 -26.253704 0.000000 33.147579
Head -10.370859 5.160598 46.814839
2233
root 6.149897 31.934292 -3.695959 9.530820 6.156143 8.498148
RightUpLeg -23.188457 2.764169 2.685170
RightLeg 38.357678 -0.000000 -0.000000
RightFoot -27.156686 -14.201771 -2.950773
RightToeBase 1.721640 -0.000000 -0.000000
LeftUpLeg -0.550725 -10.463742 -22.084312
LeftLeg -2.217535 -0.000000 0.000000
LeftFoot -4.680343 -0.109000 -1.855693
LeftToeBase 4.203342 -0.000000 -0.000000
Spine -6.645126 -4.134336 35.962529
RightShoulder -11.834948 -15.452161 0.040038
RightArm 21.205169 0.037452 63.222680
RightForeArm -7.661021 -0.000000 15.325729
RightHand 14.727527 -0.000000 -1.353767
RightHandThumb1 -24.326973 -0.000000 -32.862282
LeftShoulder -24.074398 -16.061275 62.283581
LeftArm 62.734445 -52.321911 -31.017201
LeftForeArm 3.319158 -0.000000 20.187877
LeftHand -0.919223 -0.000000 5.191524
LeftHandThumb1 -26.253704 0.000000 33.147579
Head -10.429146 5.033435 46.844524
2234
root 6.145208 31.935457 -3.697857 9.508205 6.188211 8.493309
RightUpLeg -23.154823 2.739292 2.705430
RightLeg 38.330315 -0.000000 -0.000000
RightFoot -27.141459 -14.212117 -2.974910
RightToeBase 1.654505 -0.000000 -0.000000
LeftUpLeg -0.531728 -10.438595 -22.073155
LeftLeg -2.207676 -0.000000 0.000000
LeftFoot -4.690705 -0.141478 -1.879513
LeftToeBase 4.275591 -0.000000 -0.000000
Spine -6.634634 -4.107255 35.947168
RightShoulder -11.902353 -15.440275 0.053607
RightArm 21.234930 0.058861 63.224272
RightForeArm -7.737877 -0.000000 15.276889
RightHand 14.702752 -0.000000 -1.464610
RightHandThumb1 -24.326973 -0.000000 -32.862282
LeftShoulder -24.078095 -16.127837 62.293678
LeftArm 62.660021 -52.290897 -30.972706
LeftForeArm 3.392891 -0.000000 20.195083
LeftHand -0.947280 -0.000000 5.209141
LeftHandThumb1 -26.253704 0.000000 33.147579
Head -10.539798 4.993410 46.857299
2235
root 6.143890 31.935733 -3.702921 9.482828 6.217546 8.495717
RightUpLeg -23.139940 2.717827 2.710296
RightLeg 38.342080 -0.000000 -0.000000
RightFoot -27.136935 -14.226687 -2.973145
RightToeBase 1.613160 -0.000000 -0.000000
LeftUpLeg -0.515390 -10.432145 -22.074864
LeftLeg -2.196478 -0.000000 0.000000
LeftFoot -4.686092 -0.162835 -1.890208
LeftToeBase 4.247515 -0.000000 -0.000000
Spine -6.638598 -4.127135 35.934163
RightShoulder -11.870674 -15.466432 0.019309
RightArm 21.275258 0.068471 63.232272
RightForeArm -7.732604 -0.000000 15.209115
RightHand 14.664474 -0.000000 -1.510694
RightHandThumb1 -24.326973 -0.000000 -32.862282
LeftShoulder -24.006506 -15.886147 62.128060
LeftArm 62.783762 -52.518946 -30.978755
LeftForeArm 3.404553 0.000000 20.142019
LeftHand -1.023230 -0.000000 5.333030
LeftHandThumb1 -26.253704 0.000000 33.147579
Head -10.547648 5.009264 46.848238
2236
root 6.139934 31.937211 -3.705434 9.458446 6.251238 8.493554
RightUpLeg -23.108202 2.671412 2.728645
RightLeg 38.312602 -0.000000 -0.000000
RightFoot -27.122099 -14.221255 -2.996665
RightToeBase 1.618338 -0.000000 -0.000000
LeftUpLeg -0.491192 -10.449942 -22.062380
LeftLeg -2.195712 -0.000000 0.000000
LeftFoot -4.683701 -0.182659 -1.919767
LeftToeBase 4.323483 -0.000000 -0.000000
Spine -6.654352 -4.147397 35.924299
RightShoulder -11.835502 -15.510262 0.011340
RightArm 21.291235 0.127049 63.238850
RightForeArm -7.748830 0.000000 15.182385
RightHand 14.691504 -0.000000 -1.446373
RightHandThumb1 -24.326973 -0.000000 -32.862282
LeftShoulder -24.023732 -16.020652 62.227199
LeftArm 62.612476 -52.357714 -30.934887
LeftForeArm 3.516764 -0.000000 20.185543
LeftHand -1.091187 -0.000000 5.442944
LeftHandThumb1 -26.253704 0.000000 33.147579
Head -10.576431 5.118511 46.860457
2237
root 6.140208 31.938857 -3.711782 9.449646 6.264686 8.499257
RightUpLeg -23.100901 2.652968 2.724174
RightLeg 38.289892 -0.000000 -0.000000
RightFoot -27.106470 -14.233106 -2.992358
RightToeBase 1.658885 -0.000000 -0.000000
LeftUpLeg -0.495176 -10.424399 -22.067340
LeftLeg -2.187621 -0.000000 0.000000
LeftFoot -4.659597 -0.211344 -1.929241
LeftToeBase 4.279297 -0.000000 -0.000000
Spine -6.651386 -4.123466 35.907827
RightShoulder -11.829433 -15.513857 -0.013421
RightArm 21.280420 0.105315 63.223662
RightForeArm -7.660051 0.000000 15.190350
RightHand 14.652524 -0.000000 -1.412569
RightHandThumb1 -24.326973 -0.000000 -32.862282
LeftShoulder -24.019098 -16.059307 62.247332
LeftArm 62.490545 -52.316470 -30.850665
LeftForeArm 3.555735 -0.000000 20.164428
LeftHand -1.082060 0.000000 5.568986
LeftHandThumb1 -26.253704 0.000000 33.147579
Head -10.624240 5.111631 46.832293
2238
root 6.138985 31.939215 -3.713048 9.441278 6.290155 8.501128
RightUpLeg -23.082796 2.609530 2.730410
RightLeg 38.275820 -0.000000 -0.000000
RightFoot -27.108871 -14.218515 -2.990740
RightToeBase 1.645069 -0.000000 -0.000000
LeftUpLeg -0.477743 -10.461797 -22.061657
LeftLeg -2.200809 -0.000000 0.000000
LeftFoot -4.652725 -0.198435 -1.971965
LeftToeBase 4.310321 -0.000000 -0.000000
Spine -6.674768 -4.106701 35.897780
RightShoulder -11.847657 -15.511715 -0.031728
RightArm 21.262592 0.075758 63.217122
RightForeArm -7.600111 -0.000000 15.196553
RightHand 14.658077 -0.000000 -1.388499
RightHandThumb1 -24.326973 -0.000000 -32.862282
LeftShoulder -24.008361 -16.036473 62.232280
LeftArm 62.453912 -52.320083 -30.840811
LeftForeArm 3.614461 -0.000000 20.151082
LeftHand -1.025725 0.000000 5.696725
LeftHandThumb1 -26.253704 0.000000 33.147579
Head -10.660244 5.080591 46.789156
2239
root 6.137897 31.940136 -3.719038 9.431998 6.319160 8.503483
RightUpLeg -23.076458 2.564138 2.734844
RightLeg 38.256271 -0.000000 -0.000000
RightFoot -27.092860 -14.208460 -3.004074
RightToeBase 1.674913 -0.000000 -0.000000
LeftUpLeg -0.474585 -10.498632 -22.056750
LeftLeg -2.197313 -0.000000 0.000000
LeftFoot -4.639682 -0.194199 -1.971697
LeftToeBase 4.342295 -0.000000 -0.000000
Spine -6.681654 -4.095906 35.887446
RightShoulder -11.855685 -15.515387 -0.043634
RightArm 21.273610 0.148596 63.257527
RightForeArm -7.627221 -0.000000 15.181380
RightHand 14.672782 -0.000000 -1.410636
RightHandThumb1 -24.326973 -0.000000 -32.862282
LeftShoulder -24.013336 -16.044470 62.230499
LeftArm 62.416563 -52.303668 -30.829449
LeftForeArm 3.656195 0.000000 20.140740
LeftHand -1.033597 -0.000000 5.784316
LeftHandThumb1 -26.253704 0.000000 33.147579
Head -10.702556 5.059939 46.745771
2240
root 6.138287 31.940611 -3.720750 9.419954 6.334971 8.507944
RightUpLeg -23.059937 2.537264 2.731309
RightLeg 38.244343 -0.000000 -0.000000
RightFoot -27.083530 -14.199665 -3.017382
RightToeBase 1.677951 -0.000000 -0.000000
LeftUpLeg -0.487351 -10.382545 -22.063082
LeftLeg -2.146983 -0.000000 0.000000
LeftFoot -4.653460 -0.324095 -1.973373
LeftToeBase 4.329716 -0.000000 -0.000000
Spine -6.697757 -4.073839 35.881880
RightShoulder -11.865889 -15.526545 -0.070758
RightArm 21.267302 0.143140 63.269369
RightForeArm -7.550824 -0.000000 15.176056
RightHand 14.766203 -0.000000 -1.388744
RightHandThumb1 -24.326973 -0.000000 -32.862282
LeftShoulder -23.964262 -15.874957 62.087758
LeftArm 62.476761 -52.453454 -30.787117
LeftForeArm 3.652822 -0.000000 20.100650
LeftHand -1.072231 0.000000 5.862623
LeftHandThumb1 -26.253704 0.000000 33.147579
Head -10.723587 5.038382 46.674230
